<?xml version="1.0" encoding="utf-8" ?>
<svg baseProfile="full" height="100%" version="1.1" width="100%" xmlns="http://www.w3.org/2000/svg" xmlns:ev="http://www.w3.org/2001/xml-events" xmlns:xlink="http://www.w3.org/1999/xlink"><defs /><text text-anchor="middle" x="250.0" y="30">CHR 20</text><g id="ch" stroke="black" stroke-width="3"><line x1="50" x2="450.0" y1="50" y2="50" /></g><g id="genes" stroke="black" stroke-width="0.01"><rect fill="antiquewhite" height="20" width="0.21388436908495123" x="274.9169207199156" y="40.0" /><rect fill="aqua" height="20" width="0.5973542958511757" x="207.00252902640514" y="40.0" /><rect fill="aquamarine" height="20" width="0.009248315677666596" x="446.38341822309536" y="40.0" /><rect fill="bisque" height="20" width="0.09735559154637485" x="334.5360449767316" y="40.0" /><rect fill="black" height="20" width="0.3274152026823458" x="205.21175097196928" y="40.0" /><rect fill="black" height="20" width="0.34644562943924484" x="266.4487346077419" y="40.0" /><rect fill="blanchedalmond" height="20" width="0.14945029858165526" x="290.50860646550063" y="40.0" /><rect fill="blue" height="20" width="0.2030346672027008" x="326.9499495586622" y="40.0" /><rect fill="blueviolet" height="20" width="0.08864107127025989" x="72.76677732524652" y="40.0" /><rect fill="brown" height="20" width="0.04511191835251793" x="289.47051716876103" y="40.0" /><rect fill="burlywood" height="20" width="0.26268319986195365" x="365.86361570939386" y="40.0" /><rect fill="cadetblue" height="20" width="0.17654351867098228" x="76.19713278317337" y="40.0" /><rect fill="chartreuse" height="20" width="0.04201466363900863" x="436.70431103562873" y="40.0" /><rect fill="chocolate" height="20" width="0.19572911850968921" x="262.7749932744107" y="40.0" /><rect fill="coral" height="20" width="0.2881129645139211" x="55.399396348780485" y="40.0" /><rect fill="cornflowerblue" height="20" width="0.4479971011185455" x="111.983117882492" y="40.0" /><rect fill="crimson" height="20" width="0.05159815317342975" x="73.7136993329435" y="40.0" /><rect fill="cyan" height="20" width="0.34777391101977173" x="412.851154550574" y="40.0" /><rect fill="darkblue" height="20" width="0.18654287206476283" x="204.94296015960606" y="40.0" /><rect fill="darkcyan" height="20" width="0.10556735103733672" x="442.7293218019251" y="40.0" /><rect fill="darkgoldenrod" height="20" width="0.7125734125789904" x="353.6544176294497" y="40.0" /><rect fill="darkgray" height="20" width="0.058239561076220525" x="445.3725835264501" y="40.0" /><rect fill="darkcyan" height="20" width="0.3047661396569765" x="289.59924255053215" y="40.0" /><rect fill="darkgreen" height="20" width="0.4641226877834015" x="262.24306615678654" y="40.0" /><rect fill="darkkhaki" height="20" width="0.5026056120796909" x="250.84575846872224" y="40.0" /><rect fill="darkmagenta" height="20" width="0.04292087443695891" x="416.36654485734914" y="40.0" /><rect fill="darkmagenta" height="20" width="1.0683356338518593" x="370.25560358317614" y="40.0" /><rect fill="darkolivegreen" height="20" width="1.1177551569562496" x="71.54447895959304" y="40.0" /><rect fill="darkorange" height="20" width="0.14243647528252268" x="399.8804725026549" y="40.0" /><rect fill="darkorchid" height="20" width="0.013456609657168883" x="69.1331885785722" y="40.0" /><rect fill="darkred" height="20" width="0.5023449213022104" x="358.06788145775863" y="40.0" /><rect fill="darksalmon" height="20" width="0.2619259552225799" x="159.8232645322268" y="40.0" /><rect fill="darkseagreen" height="20" width="0.8305918517032183" x="384.7814364642187" y="40.0" /><rect fill="darkslateblue" height="20" width="0.5448561388030271" x="365.2800097485937" y="40.0" /><rect fill="darkslategray" height="20" width="0.3695415909402584" x="246.5388240645581" y="40.0" /><rect fill="darkorange" height="20" width="0.46747442635114567" x="158.58332609062973" y="40.0" /><rect fill="darkturquoise" height="20" width="0.006877270987160955" x="441.072954670979" y="40.0" /><rect fill="darkviolet" height="20" width="0.02870081321714224" x="442.50027391928273" y="40.0" /><rect fill="darkturquoise" height="20" width="0.22009129235857472" x="282.71289704155845" y="40.0" /><rect fill="darkorange" height="20" width="0.07830654401973902" x="92.00637118949803" y="40.0" /><rect fill="deeppink" height="20" width="0.6075398569431059" x="404.84203248371574" y="40.0" /><rect fill="crimson" height="20" width="0.48014275675251383" x="287.47780927946513" y="40.0" /><rect fill="deepskyblue" height="20" width="0.045409850669614116" x="256.2932708867197" y="40.0" /><rect fill="dimgray" height="20" width="0.12192880078657709" x="255.83254959289025" y="40.0" /><rect fill="dimgray" height="20" width="0.06484993436259856" x="256.17729452535247" y="40.0" /><rect fill="dimgray" height="20" width="0.2259195933124829" x="256.52593740563054" y="40.0" /><rect fill="dimgray" height="20" width="0.09998732701441782" x="254.87564064564603" y="40.0" /><rect fill="dimgray" height="20" width="0.11299083127261156" x="255.17248054428262" y="40.0" /><rect fill="dimgray" height="20" width="0.19928568554544768" x="255.3228122259692" y="40.0" /><rect fill="dimgray" height="20" width="0.07695964166933322" x="255.02490473652955" y="40.0" /><rect fill="darkkhaki" height="20" width="0.2227416485963687" x="123.80480532861881" y="40.0" /><rect fill="cyan" height="20" width="0.005251057089452615" x="67.4724083251786" y="40.0" /><rect fill="darkred" height="20" width="0.040133965887093836" x="270.4896899357858" y="40.0" /><rect fill="aquamarine" height="20" width="0.9826800926761905" x="70.16818682752157" y="40.0" /><rect fill="aquamarine" height="20" width="0.04234983749574894" x="277.20898231177387" y="40.0" /><rect fill="aquamarine" height="20" width="0.0923528113878831" x="73.29773616284" y="40.0" /><rect fill="dodgerblue" height="20" width="0.1236108769937232" x="51.681225858656845" y="40.0" /><rect fill="firebrick" height="20" width="0.11577773982241979" x="437.2414519688027" y="40.0" /><rect fill="forestgreen" height="20" width="0.29963922103303275" x="400.14565088567286" y="40.0" /><rect fill="fuchsia" height="20" width="0.9928656537682059" x="257.8703259520757" y="40.0" /><rect fill="darkseagreen" height="20" width="0.049854007733529215" x="397.57181359796306" y="40.0" /><rect fill="gainsboro" height="20" width="0.13487644273530464" x="248.6864071033768" y="40.0" /><rect fill="coral" height="20" width="0.07194444766429342" x="336.2525758149686" y="40.0" /><rect fill="deepskyblue" height="20" width="0.043392600605727694" x="193.25174844761358" y="40.0" /><rect fill="darkorange" height="20" width="0.12009775842086867" x="73.50420325861299" y="40.0" /><rect fill="forestgreen" height="20" width="0.8364760149665926" x="336.5968179866457" y="40.0" /><rect fill="forestgreen" height="20" width="0.4691440887116869" x="422.1573559946861" y="40.0" /><rect fill="gold" height="20" width="4.2715487345813585" x="430.1891085037999" y="40.0" /><rect fill="goldenrod" height="20" width="0.26517217609472254" x="257.05575416934164" y="40.0" /><rect fill="green" height="20" width="0.44131845167615324" x="81.82156734216147" y="40.0" /><rect fill="blanchedalmond" height="20" width="0.012134534999916013" x="361.53003498361613" y="40.0" /><rect fill="blanchedalmond" height="20" width="0.01762145517375302" x="73.48607283573081" y="40.0" /><rect fill="darkgoldenrod" height="20" width="0.3979630926100981" x="270.0674826008691" y="40.0" /><rect fill="darkgoldenrod" height="20" width="1.9128992698439333" x="174.46441584076956" y="40.0" /><rect fill="darkmagenta" height="20" width="1.3431347479439069" x="306.979664272796" y="40.0" /><rect fill="greenyellow" height="20" width="0.08646864812450872" x="86.69179244725129" y="40.0" /><rect fill="grey" height="20" width="0.2672825300077193" x="259.8641697083306" y="40.0" /><rect fill="burlywood" height="20" width="0.2183471469186884" x="443.16652506347083" y="40.0" /><rect fill="honeydew" height="20" width="0.47257031035877617" x="273.16722008370436" y="40.0" /><rect fill="hotpink" height="20" width="0.2586114581945367" x="442.85594924362977" y="40.0" /><rect fill="indianred" height="20" width="0.15464549336172695" x="439.8956068436729" y="40.0" /><rect fill="indigo" height="20" width="0.2563831727392767" x="252.98309387721625" y="40.0" /><rect fill="darkorchid" height="20" width="0.04418087986147157" x="246.37394335471822" y="40.0" /><rect fill="crimson" height="20" width="0.24160448842485494" x="271.1280409598591" y="40.0" /><rect fill="blueviolet" height="20" width="0.040767072060987175" x="67.34257190414147" y="40.0" /><rect fill="khaki" height="20" width="0.21080573514123557" x="87.27933980433016" y="40.0" /><rect fill="antiquewhite" height="20" width="0.13455368272508395" x="174.35178501104684" y="40.0" /><rect fill="lavender" height="20" width="0.3147779068972909" x="354.4262857800614" y="40.0" /><rect fill="darkslategray" height="20" width="0.4359122215048572" x="52.93954300006702" y="40.0" /><rect fill="burlywood" height="20" width="0.023058719961426277" x="197.3992394067255" y="40.0" /><rect fill="darkgoldenrod" height="20" width="0.015231789713425314" x="195.55485215597557" y="40.0" /><rect fill="burlywood" height="20" width="0.018384906736400808" x="197.87230627094615" y="40.0" /><rect fill="indianred" height="20" width="0.07303686616043592" x="196.6491513498809" y="40.0" /><rect fill="burlywood" height="20" width="0.021103539130251647" x="197.01495016608717" y="40.0" /><rect fill="darkcyan" height="20" width="0.023679412288799995" x="198.1960966304367" y="40.0" /><rect fill="darkcyan" height="20" width="0.0664016651809618" x="204.85795634537413" y="40.0" /><rect fill="darkcyan" height="20" width="0.0305194417362884" x="195.80746151936452" y="40.0" /><rect fill="darkcyan" height="20" width="0.021513196066308637" x="196.49834794202553" y="40.0" /><rect fill="darkcyan" height="20" width="0.02493321079006705" x="196.26448348692287" y="40.0" /><rect fill="lawngreen" height="20" width="0.08688451198383973" x="400.02312001332876" y="40.0" /><rect fill="darkcyan" height="20" width="0.03255531257002531" x="195.48832635232915" y="40.0" /><rect fill="lightblue" height="20" width="0.1842587243000935" x="406.87304950345623" y="40.0" /><rect fill="lawngreen" height="20" width="1.1059123473502268" x="283.963486563493" y="40.0" /><rect fill="lightcoral" height="20" width="0.053851266321714775" x="334.8366028224091" y="40.0" /><rect fill="darkviolet" height="20" width="0.07486790852613012" x="416.17858680677807" y="40.0" /><rect fill="dodgerblue" height="20" width="0.12739089326737485" x="386.12630294375595" y="40.0" /><rect fill="greenyellow" height="20" width="0.02826012166468672" x="331.83191195566235" y="40.0" /><rect fill="lightcyan" height="20" width="0.08897624512704283" x="69.80225766592653" y="40.0" /><rect fill="lightgray" height="20" width="0.15381997256633895" x="355.5003876456344" y="40.0" /><rect fill="lightgreen" height="20" width="0.01221522500244987" x="244.0139221599373" y="40.0" /><rect fill="lightgreen" height="20" width="0.033349798749071624" x="244.29663510120318" y="40.0" /><rect fill="forestgreen" height="20" width="0.03292772796646659" x="244.7026051248362" y="40.0" /><rect fill="lightgreen" height="20" width="0.08341484187391757" x="244.75564949113237" y="40.0" /><rect fill="lightgreen" height="20" width="0.0496119377258708" x="244.92746333426888" y="40.0" /><rect fill="lightgreen" height="20" width="0.06044301883829917" x="245.14888911513125" y="40.0" /><rect fill="lightgreen" height="20" width="0.06983409375126826" x="245.30398150696865" y="40.0" /><rect fill="lightgreen" height="20" width="0.06110095270530991" x="50.54155405562151" y="40.0" /><rect fill="honeydew" height="20" width="0.020991814511312157" x="50.88367345953901" y="40.0" /><rect fill="lightgreen" height="20" width="0.010508321102200568" x="50.977404207893635" y="40.0" /><rect fill="lightgreen" height="20" width="0.011346255744136613" x="51.165989157715394" y="40.0" /><rect fill="lightgreen" height="20" width="0.01631179436301977" x="51.41057296931156" y="40.0" /><rect fill="lightgreen" height="20" width="0.02085526219929079" x="51.59974757684431" y="40.0" /><rect fill="lightpink" height="20" width="0.48056482753509044" x="291.8360004560227" y="40.0" /><rect fill="lightsalmon" height="20" width="0.3737436779965151" x="440.2772953834596" y="40.0" /><rect fill="lightseagreen" height="20" width="1.379805250644381" x="275.35064189750483" y="40.0" /><rect fill="crimson" height="20" width="0.25354660880321944" x="446.5924922266433" y="40.0" /><rect fill="lightskyblue" height="20" width="0.29154539308422045" x="253.35360995511044" y="40.0" /><rect fill="lightcyan" height="20" width="0.12097293460249148" x="334.2270395084787" y="40.0" /><rect fill="darkkhaki" height="20" width="1.089774346838908" x="388.1258508624993" y="40.0" /><rect fill="darkred" height="20" width="0.1470295985050143" x="366.14881141996915" y="40.0" /><rect fill="lightslategray" height="20" width="0.13671989894754688" x="278.11554690434593" y="40.0" /><rect fill="lightsteelblue" height="20" width="0.24862451864726154" x="159.05479156864578" y="40.0" /><rect fill="goldenrod" height="20" width="1.2194369740243474" x="165.2467561571554" y="40.0" /><rect fill="lime" height="20" width="0.14344199685288572" x="247.67583930443232" y="40.0" /><rect fill="limegreen" height="20" width="0.15237375944360565" x="264.2407023431616" y="40.0" /><rect fill="cornflowerblue" height="20" width="0.5208477595807608" x="164.10414847941166" y="40.0" /><rect fill="magenta" height="20" width="0.06654442441629271" x="259.02238056704186" y="40.0" /><rect fill="indigo" height="20" width="0.4172914516840649" x="66.7144871311627" y="40.0" /><rect fill="lightcoral" height="20" width="0.19866499321807396" x="267.9583266240372" y="40.0" /><rect fill="cadetblue" height="20" width="0.15867999348955664" x="418.07320048065793" y="40.0" /><rect fill="maroon" height="20" width="0.07015064683821493" x="444.0652254842552" y="40.0" /><rect fill="cornflowerblue" height="20" width="0.6373641232727891" x="253.95281391409716" y="40.0" /><rect fill="maroon" height="20" width="0.14917719395765516" x="261.5834502135779" y="40.0" /><rect fill="maroon" height="20" width="0.03772567965700091" x="268.9734689254343" y="40.0" /><rect fill="mediumaquamarine" height="20" width="0.4154666162416447" x="337.7905086429312" y="40.0" /><rect fill="indianred" height="20" width="0.042585700580161756" x="306.7181355606629" y="40.0" /><rect fill="magenta" height="20" width="0.1926380707194255" x="206.38773327615516" y="40.0" /><rect fill="mediumblue" height="20" width="0.877007223943167" x="274.01719615679104" y="40.0" /><rect fill="lightseagreen" height="20" width="0.04423053524766374" x="332.6671714136673" y="40.0" /><rect fill="lightseagreen" height="20" width="0.06480027897634955" x="332.6445782129514" y="40.0" /><rect fill="mediumorchid" height="20" width="0.09690869307064531" x="270.6065973356441" y="40.0" /><rect fill="lightcyan" height="20" width="0.43798533387825955" x="135.12374440343063" y="40.0" /><rect fill="mediumpurple" height="20" width="1.8262009655583142" x="341.07133311227375" y="40.0" /><rect fill="mediumseagreen" height="20" width="0.14740201390142715" x="55.174805037048586" y="40.0" /><rect fill="darkseagreen" height="20" width="0.0555829979151099" x="400.79784334864627" y="40.0" /><rect fill="mediumslateblue" height="20" width="0.020321466797781795" x="400.897520329497" y="40.0" /><rect fill="darkorange" height="20" width="0.06050508807101096" x="399.81546118828726" y="40.0" /><rect fill="mediumspringgreen" height="20" width="0.09258246754899346" x="422.0042746459893" y="40.0" /><rect fill="mediumturquoise" height="20" width="0.041400178234880514" x="269.0158249698534" y="40.0" /><rect fill="lightslategray" height="20" width="0.1663083021927605" x="291.6126319081757" y="40.0" /><rect fill="mediumvioletred" height="20" width="0.08303621955421647" x="69.53020201192142" y="40.0" /><rect fill="darkorange" height="20" width="0.30227095650099045" x="87.70609681400646" y="40.0" /><rect fill="darkkhaki" height="20" width="0.051709877792347925" x="324.98431626868575" y="40.0" /><rect fill="midnightblue" height="20" width="0.15017030168145595" x="58.497141409244996" y="40.0" /><rect fill="mistyrose" height="20" width="0.09079487364621741" x="138.90168756467904" y="40.0" /><rect fill="darkseagreen" height="20" width="0.05472644250335179" x="444.4368836360318" y="40.0" /><rect fill="moccasin" height="20" width="0.02762080856751936" x="190.15856547575515" y="40.0" /><rect fill="burlywood" height="20" width="0.00818072487459176" x="247.6551330083916" y="40.0" /><rect fill="indigo" height="20" width="0.07741895399158238" x="437.7061332796807" y="40.0" /><rect fill="darkred" height="20" width="0.21372298907988352" x="400.63835645513115" y="40.0" /><rect fill="navajowhite" height="20" width="0.20990573126658774" x="324.6383485723386" y="40.0" /><rect fill="navy" height="20" width="0.13282195113174566" x="269.93206615580897" y="40.0" /><rect fill="olive" height="20" width="0.015026961245382608" x="269.93009235420794" y="40.0" /><rect fill="darkkhaki" height="20" width="0.025491833884672133" x="72.7129446796946" y="40.0" /><rect fill="khaki" height="20" width="0.1746628209190817" x="266.2785035300402" y="40.0" /><rect fill="olivedrab" height="20" width="0.023145616887234155" x="198.87336506343547" y="40.0" /><rect fill="gainsboro" height="20" width="0.0667430459610614" x="281.2146078325444" y="40.0" /><rect fill="mediumspringgreen" height="20" width="0.06427889742138859" x="440.6520756176428" y="40.0" /><rect fill="lightpink" height="20" width="0.27869706190787724" x="207.70381204554945" y="40.0" /><rect fill="fuchsia" height="20" width="0.24479484698747456" x="444.6833667661497" y="40.0" /><rect fill="darkorchid" height="20" width="0.4436336340572211" x="415.21361506620144" y="40.0" /><rect fill="orange" height="20" width="0.013189711956385963" x="68.89152822783791" y="40.0" /><rect fill="orangered" height="20" width="0.4135176423337015" x="84.41369022583534" y="40.0" /><rect fill="orchid" height="20" width="0.16998900769408465" x="266.7980850772732" y="40.0" /><rect fill="cornflowerblue" height="20" width="0.00517657401019278" x="321.4049449968063" y="40.0" /><rect fill="lightcyan" height="20" width="0.06753753214002245" x="195.00727117785542" y="40.0" /><rect fill="bisque" height="20" width="0.35685463976902554" x="98.92905823423864" y="40.0" /><rect fill="crimson" height="20" width="0.3082854651531193" x="248.94547166697026" y="40.0" /><rect fill="lightpink" height="20" width="0.10026043163844633" x="444.50016321880616" y="40.0" /><rect fill="crimson" height="20" width="0.3941085932571866" x="245.60763660735967" y="40.0" /><rect fill="chocolate" height="20" width="0.4897014185938815" x="325.3124266467747" y="40.0" /><rect fill="burlywood" height="20" width="0.03287807258027442" x="436.16354525926295" y="40.0" /><rect fill="cornflowerblue" height="20" width="0.12689433940545314" x="73.16837767489493" y="40.0" /><rect fill="coral" height="20" width="0.007646929473082764" x="246.1715666213825" y="40.0" /><rect fill="darkorchid" height="20" width="0.03614912114544211" x="66.50045379591919" y="40.0" /><rect fill="limegreen" height="20" width="0.34985323031639837" x="320.5655641417477" y="40.0" /><rect fill="lightseagreen" height="20" width="0.017553179017738785" x="176.42336427438033" y="40.0" /><rect fill="orange" height="20" width="0.48960210782146873" x="132.0665181380962" y="40.0" /><rect fill="black" height="20" width="0.9196053383698768" x="263.2899630776514" y="40.0" /><rect fill="magenta" height="20" width="0.09311626295053088" x="69.91719747110704" y="40.0" /><rect fill="mediumblue" height="20" width="0.2260747663942908" x="116.0272883967916" y="40.0" /><rect fill="dimgray" height="20" width="0.4709999587705056" x="323.7979063334002" y="40.0" /><rect fill="khaki" height="20" width="0.31201582604057876" x="162.58190675348476" y="40.0" /><rect fill="darkslategray" height="20" width="1.1849202736999018" x="355.9603144532848" y="40.0" /><rect fill="palegoldenrod" height="20" width="0.12086741690683311" x="366.57577946503676" y="40.0" /><rect fill="cadetblue" height="20" width="0.04054982974645327" x="327.7336232773402" y="40.0" /><rect fill="lightsteelblue" height="20" width="0.4497971088678696" x="443.52023900006344" y="40.0" /><rect fill="palegoldenrod" height="20" width="0.05463333865424147" x="329.88450839934046" y="40.0" /><rect fill="darkmagenta" height="20" width="1.8703321900335652" x="150.99970102802322" y="40.0" /><rect fill="limegreen" height="20" width="0.35594842897108947" x="250.34498389900827" y="40.0" /><rect fill="mediumseagreen" height="20" width="0.7487970168037066" x="181.12735556035662" y="40.0" /><rect fill="lightblue" height="20" width="0.26857357004860205" x="320.04883157229733" y="40.0" /><rect fill="darkslategray" height="20" width="0.3684243447510198" x="436.74069601985855" y="40.0" /><rect fill="palegreen" height="20" width="0.10034112164100861" x="109.05489010355274" y="40.0" /><rect fill="deepskyblue" height="20" width="0.19034771603139689" x="288.0128895141123" y="40.0" /><rect fill="lawngreen" height="20" width="0.017503523631546614" x="445.6062183253917" y="40.0" /><rect fill="lime" height="20" width="0.12204052540550947" x="306.599918499994" y="40.0" /><rect fill="burlywood" height="20" width="0.08237207876393882" x="87.49464555884475" y="40.0" /><rect fill="paleturquoise" height="20" width="0.08017482792507735" x="435.5893489941456" y="40.0" /><rect fill="darkkhaki" height="20" width="0.06812098292773783" x="69.63012106277982" y="40.0" /><rect fill="lightcoral" height="20" width="12.772780506263643" x="136.86818156870584" y="40.0" /><rect fill="palevioletred" height="20" width="0.02105388374411632" x="302.5339368573109" y="40.0" /><rect fill="aquamarine" height="20" width="0.17144763466330915" x="281.4539219662813" y="40.0" /><rect fill="mediumpurple" height="20" width="0.08373760188408141" x="264.4296721222264" y="40.0" /><rect fill="lightslategray" height="20" width="0.18938564292403726" x="253.7105576987286" y="40.0" /><rect fill="peachpuff" height="20" width="0.09362523065897221" x="331.13293791197583" y="40.0" /><rect fill="bisque" height="20" width="0.18201181807501143" x="73.87678624195732" y="40.0" /><rect fill="cadetblue" height="20" width="0.00672209790531042" x="399.13156376123226" y="40.0" /><rect fill="lightpink" height="20" width="0.29994956719666277" x="86.93524039188839" y="40.0" /><rect fill="peru" height="20" width="0.13784955898336193" x="161.53166430097545" y="40.0" /><rect fill="pink" height="20" width="0.000434484629124654" x="438.26977777523297" y="40.0" /><rect fill="pink" height="20" width="0.0004779330920570146" x="74.3155846827844" y="40.0" /><rect fill="paleturquoise" height="20" width="0.0005337954015658397" x="442.1441020410738" y="40.0" /><rect fill="pink" height="20" width="0.0006268992506193172" x="438.33560840347275" y="40.0" /><rect fill="pink" height="20" width="0.000751037716099745" x="267.18257914637957" y="40.0" /><rect fill="darkseagreen" height="20" width="0.00042827770585063263" x="289.06935130374177" y="40.0" /><rect fill="pink" height="20" width="0.0005710369411815464" x="212.6721996422112" y="40.0" /><rect fill="darkseagreen" height="20" width="0.00044069155245551883" x="446.7431156337237" y="40.0" /><rect fill="darkseagreen" height="20" width="0.00044069155245551883" x="446.743463221427" y="40.0" /><rect fill="darkseagreen" height="20" width="0.0004406915523986754" x="446.74381080913037" y="40.0" /><rect fill="darkseagreen" height="20" width="0.00044069155245551883" x="446.7450211591687" y="40.0" /><rect fill="darkseagreen" height="20" width="0.00044069155245551883" x="446.7457163345753" y="40.0" /><rect fill="darkolivegreen" height="20" width="0.20615054268603217" x="114.55826483101256" y="40.0" /><rect fill="indianred" height="20" width="0.31249375913262156" x="268.649138563619" y="40.0" /><rect fill="indianred" height="20" width="0.04750158381284564" x="335.57376185807476" y="40.0" /><rect fill="green" height="20" width="0.031686343311776" x="366.2975230946813" y="40.0" /><rect fill="gainsboro" height="20" width="0.03280358950098616" x="439.7727656251651" y="40.0" /><rect fill="plum" height="20" width="0.014331785838734845" x="68.90594691060248" y="40.0" /><rect fill="plum" height="20" width="0.12748399711642833" x="435.96528992298096" y="40.0" /><rect fill="orange" height="20" width="0.009546247994819623" x="406.0194485871778" y="40.0" /><rect fill="powderblue" height="20" width="0.30709994280783803" x="321.0378365197893" y="40.0" /><rect fill="lightsteelblue" height="20" width="0.16779796377846878" x="267.08964288420395" y="40.0" /><rect fill="mediumblue" height="20" width="0.06183957657481187" x="276.81018749144516" y="40.0" /><rect fill="cadetblue" height="20" width="0.09546868687124288" x="247.50000337501453" y="40.0" /><rect fill="purple" height="20" width="0.5614906931763244" x="448.18524460095824" y="40.0" /><rect fill="darkviolet" height="20" width="0.10265630402204806" x="174.24470317073073" y="40.0" /><rect fill="moccasin" height="20" width="0.06976581759525402" x="208.97752235667815" y="40.0" /><rect fill="red" height="20" width="0.29172539385916707" x="195.0838459902818" y="40.0" /><rect fill="khaki" height="20" width="0.9619179343259816" x="344.84066106401843" y="40.0" /><rect fill="orangered" height="20" width="0.17979594646635633" x="335.896999801394" y="40.0" /><rect fill="indigo" height="20" width="0.8475677868564162" x="265.31256350943295" y="40.0" /><rect fill="gainsboro" height="20" width="0.5853873477796583" x="277.4946994039042" y="40.0" /><rect fill="lightskyblue" height="20" width="0.2273720133584618" x="135.5621269803984" y="40.0" /><rect fill="mediumorchid" height="20" width="0.1078514988020629" x="258.906956621846" y="40.0" /><rect fill="rosybrown" height="20" width="0.08643140658489301" x="416.09183264018293" y="40.0" /><rect fill="royalblue" height="20" width="0.016522829754308077" x="334.82717450595646" y="40.0" /><rect fill="blanchedalmond" height="20" width="1.091636423820944" x="368.95489936273054" y="40.0" /><rect fill="chocolate" height="20" width="0.19430152615677798" x="271.3888807035088" y="40.0" /><rect fill="mediumseagreen" height="20" width="0.8243538938132531" x="207.98298704054938" y="40.0" /><rect fill="saddlebrown" height="20" width="0.19806292166049388" x="442.53069405024667" y="40.0" /><rect fill="indigo" height="20" width="0.01872008059316954" x="183.51718860762062" y="40.0" /><rect fill="darksalmon" height="20" width="0.016516622831062477" x="182.7994013794918" y="40.0" /><rect fill="darkviolet" height="20" width="0.015380755872001828" x="282.89130263721154" y="40.0" /><rect fill="mediumspringgreen" height="20" width="0.8814762087001782" x="251.37157797384518" y="40.0" /><rect fill="lightgray" height="20" width="0.03878085661344244" x="66.4616605254592" y="40.0" /><rect fill="salmon" height="20" width="0.008385553342577623" x="447.89990613114765" y="40.0" /><rect fill="blueviolet" height="20" width="0.18687183899822912" x="414.2789331112" y="40.0" /><rect fill="greenyellow" height="20" width="0.07993275791740473" x="52.15244926666521" y="40.0" /><rect fill="chartreuse" height="20" width="0.19663532930761818" x="58.95138888210007" y="40.0" /><rect fill="cadetblue" height="20" width="0.3347641998383324" x="439.22893983562545" y="40.0" /><rect fill="navy" height="20" width="0.025082176948615142" x="194.9362267340658" y="40.0" /><rect fill="coral" height="20" width="0.059760257278185236" x="338.87608090271385" y="40.0" /><rect fill="gainsboro" height="20" width="0.056886451802540705" x="439.82479205604443" y="40.0" /><rect fill="cadetblue" height="20" width="0.1270557194105777" x="447.7407171699496" y="40.0" /><rect fill="dimgray" height="20" width="0.399049304182995" x="436.268765022597" y="40.0" /><rect fill="burlywood" height="20" width="0.13471506273018008" x="153.95577306476784" y="40.0" /><rect fill="palevioletred" height="20" width="0.6344034208713083" x="161.4575908786283" y="40.0" /><rect fill="cadetblue" height="20" width="0.0055676101764134955" x="69.06530966565214" y="40.0" /><rect fill="darkorange" height="20" width="0.3039716534779586" x="328.75330904657363" y="40.0" /><rect fill="burlywood" height="20" width="1.8723308193276864" x="109.197841753467" y="40.0" /><rect fill="darkorchid" height="20" width="0.25475075191833696" x="74.13772529637941" y="40.0" /><rect fill="gold" height="20" width="0.15673101958168445" x="364.8868011592112" y="40.0" /><rect fill="palevioletred" height="20" width="0.07961620483044385" x="184.7253600159034" y="40.0" /><rect fill="aquamarine" height="20" width="0.0364718811556628" x="67.59857645456106" y="40.0" /><rect fill="sandybrown" height="20" width="0.08314173724988905" x="335.11271159731183" y="40.0" /><rect fill="darkblue" height="20" width="0.04364708445996257" x="407.27720710549335" y="40.0" /><rect fill="lightskyblue" height="20" width="0.19940361708762566" x="448.8301687567783" y="40.0" /><rect fill="lightcoral" height="20" width="0.07245341537272054" x="81.74812081906498" y="40.0" /><rect fill="darkviolet" height="20" width="1.6043096654504154" x="156.92112445180646" y="40.0" /><rect fill="seagreen" height="20" width="0.04810365537039729" x="248.2760798196057" y="40.0" /><rect fill="burlywood" height="20" width="0.09638110459244587" x="62.281992876096915" y="40.0" /><rect fill="mediumpurple" height="20" width="0.0328718656570004" x="162.58038605728274" y="40.0" /><rect fill="seagreen" height="20" width="0.1254108847430757" x="386.4639471559932" y="40.0" /><rect fill="lightsteelblue" height="20" width="1.6771230823729866" x="419.7930271951533" y="40.0" /><rect fill="khaki" height="20" width="1.10735856047296" x="272.033897963178" y="40.0" /><rect fill="indianred" height="20" width="0.010353148020328717" x="330.39698922634847" y="40.0" /><rect fill="darkturquoise" height="20" width="0.2536583334221518" x="331.8940432576311" y="40.0" /><rect fill="dimgray" height="20" width="0.8580947287284744" x="264.5146324879954" y="40.0" /><rect fill="deeppink" height="20" width="0.5739045397235145" x="326.40537273140643" y="40.0" /><rect fill="deeppink" height="20" width="0.09489144300678731" x="249.81639610610532" y="40.0" /><rect fill="blanchedalmond" height="20" width="5.53104519141354" x="100.1348772186007" y="40.0" /><rect fill="salmon" height="20" width="2.5602255049708305" x="106.2891161274534" y="40.0" /><rect fill="palevioletred" height="20" width="0.37142849561547564" x="305.3339544291107" y="40.0" /><rect fill="dimgray" height="20" width="0.08400449958486433" x="334.8892189109994" y="40.0" /><rect fill="palegreen" height="20" width="0.3919299631881472" x="407.8191459903578" y="40.0" /><rect fill="darkred" height="20" width="0.19109254682430787" x="249.91183996528343" y="40.0" /><rect fill="green" height="20" width="0.10872046806036906" x="164.62404037280828" y="40.0" /><rect fill="sienna" height="20" width="0.009198660291474425" x="444.2682601514579" y="40.0" /><rect fill="coral" height="20" width="0.7281900315353482" x="290.8640335129167" y="40.0" /><rect fill="darkorchid" height="20" width="0.02252492455988886" x="422.0222995511758" y="40.0" /><rect fill="olive" height="20" width="0.060604398843452145" x="416.41420161424384" y="40.0" /><rect fill="darkkhaki" height="20" width="1.2639219931261891" x="351.80700140014227" y="40.0" /><rect fill="lightseagreen" height="20" width="0.04065534744208321" x="79.3085330748398" y="40.0" /><rect fill="darkslategray" height="20" width="0.09530109994283009" x="79.08710729397744" y="40.0" /><rect fill="orange" height="20" width="0.05825818184599996" x="79.36670435975998" y="40.0" /><rect fill="mediumseagreen" height="20" width="0.2741411802250582" x="268.31035848442264" y="40.0" /><rect fill="cadetblue" height="20" width="0.07652515704019436" x="82.9093554735528" y="40.0" /><rect fill="antiquewhite" height="20" width="0.3225427679125801" x="447.1259959027789" y="40.0" /><rect fill="chocolate" height="20" width="0.04161742054947126" x="435.67794661695297" y="40.0" /><rect fill="chocolate" height="20" width="0.4726696211311108" x="56.90993802433663" y="40.0" /><rect fill="silver" height="20" width="0.3989313726407886" x="357.26674766391193" y="40.0" /><rect fill="gainsboro" height="20" width="0.058152664150384226" x="444.3134279321199" y="40.0" /><rect fill="lime" height="20" width="0.46502269165807775" x="363.5136869718558" y="40.0" /><rect fill="lime" height="20" width="1.0855412251662813" x="67.77777032946985" y="40.0" /><rect fill="lime" height="20" width="6.9344864058837175" x="311.1423435731585" y="40.0" /><rect fill="bisque" height="20" width="0.10902460730073926" x="259.1904081869815" y="40.0" /><rect fill="darkred" height="20" width="0.3100047828998811" x="206.7128270895332" y="40.0" /><rect fill="darkcyan" height="20" width="0.08844244972550541" x="325.1962702846326" y="40.0" /><rect fill="darkgray" height="20" width="0.35882844137006487" x="411.9238091788819" y="40.0" /><rect fill="lightslategray" height="20" width="0.43675015614679324" x="57.610035521135686" y="40.0" /><rect fill="chartreuse" height="20" width="0.175041443238797" x="405.9733187334084" y="40.0" /><rect fill="darkcyan" height="20" width="2.004438974282948" x="176.55638484705685" y="40.0" /><rect fill="darkcyan" height="20" width="0.6582131785487491" x="288.79781703129163" y="40.0" /><rect fill="lawngreen" height="20" width="0.7116982363974103" x="260.9959525118852" y="40.0" /><rect fill="skyblue" height="20" width="0.2707584070409297" x="79.66923600703846" y="40.0" /><rect fill="darkseagreen" height="20" width="0.10735494494019804" x="437.3755525461288" y="40.0" /><rect fill="slateblue" height="20" width="0.0664326997973319" x="164.74453537431867" y="40.0" /><rect fill="chartreuse" height="20" width="0.14566407538482196" x="52.52930882014504" y="40.0" /><rect fill="indigo" height="20" width="0.6184950765210715" x="279.6334996462907" y="40.0" /><rect fill="lightsalmon" height="20" width="0.09950318699907257" x="271.2701422612849" y="40.0" /><rect fill="pink" height="20" width="0.1112653066025473" x="406.224059812892" y="40.0" /><rect fill="lawngreen" height="20" width="0.2542666119029491" x="271.5955215931335" y="40.0" /><rect fill="purple" height="20" width="0.06810856908123242" x="331.2161479253817" y="40.0" /><rect fill="darkgray" height="20" width="0.059660946505829315" x="245.36472866504738" y="40.0" /><rect fill="slategrey" height="20" width="0.0422505267233646" x="447.6973183624206" y="40.0" /><rect fill="springgreen" height="20" width="0.3632912192037452" x="327.7710386108335" y="40.0" /><rect fill="darkcyan" height="20" width="0.7196058566479451" x="173.43411002581507" y="40.0" /><rect fill="honeydew" height="20" width="0.10896874499127307" x="359.95100611665913" y="40.0" /><rect fill="mediumorchid" height="20" width="0.547903738130401" x="74.37650563471477" y="40.0" /><rect fill="orchid" height="20" width="0.010626252644385659" x="271.5826422273408" y="40.0" /><rect fill="orchid" height="20" width="0.3923582408940547" x="280.7635383044054" y="40.0" /><rect fill="mediumseagreen" height="20" width="0.5849032077643415" x="286.0713018448978" y="40.0" /><rect fill="steelblue" height="20" width="0.0087145202761576" x="437.23204227311993" y="40.0" /><rect fill="plum" height="20" width="0.42590045426456413" x="159.3267479118785" y="40.0" /><rect fill="springgreen" height="20" width="0.2719377224629227" x="55.9490380254275" y="40.0" /><rect fill="lightpink" height="20" width="0.23861275140694715" x="445.11914243534255" y="40.0" /><rect fill="lightpink" height="20" width="0.24445346620740338" x="445.1283907510202" y="40.0" /><rect fill="tan" height="20" width="0.31570894538833727" x="400.49617446370286" y="40.0" /><rect fill="palevioletred" height="20" width="0.12531157397069137" x="371.40895544510647" y="40.0" /><rect fill="peru" height="20" width="0.38243337057951976" x="278.9748209484964" y="40.0" /><rect fill="fuchsia" height="20" width="0.03634153576695098" x="273.16134212736426" y="40.0" /><rect fill="dimgray" height="20" width="0.00413381090021403" x="166.77535377251445" y="40.0" /><rect fill="blanchedalmond" height="20" width="0.09051556209889355" x="54.10647561012" y="40.0" /><rect fill="gold" height="20" width="0.14360337685798186" x="331.330584969777" y="40.0" /><rect fill="lightcyan" height="20" width="0.11997982687866937" x="58.13050465839678" y="40.0" /><rect fill="red" height="20" width="0.33468971675904413" x="164.87458903767038" y="40.0" /><rect fill="cyan" height="20" width="0.9136342781806661" x="135.961213526121" y="40.0" /><rect fill="lightseagreen" height="20" width="0.017224212084272494" x="330.5963618088197" y="40.0" /><rect fill="lightseagreen" height="20" width="0.019601463697995314" x="330.685139432402" y="40.0" /><rect fill="chocolate" height="20" width="0.16068482970695186" x="326.18462971210414" y="40.0" /><rect fill="gainsboro" height="20" width="0.18167043729494026" x="320.3671722531537" y="40.0" /><rect fill="forestgreen" height="20" width="0.12511915934921092" x="72.88473990206127" y="40.0" /><rect fill="forestgreen" height="20" width="0.28815641297683214" x="61.75694923638318" y="40.0" /><rect fill="teal" height="20" width="0.35093944188928816" x="59.704654883660766" y="40.0" /><rect fill="cyan" height="20" width="0.1293895225614392" x="59.128776542336254" y="40.0" /><rect fill="orange" height="20" width="0.15264065714434594" x="59.52297823944252" y="40.0" /><rect fill="forestgreen" height="20" width="0.17768559255332406" x="60.11202146503034" y="40.0" /><rect fill="mistyrose" height="20" width="0.2104022851284526" x="277.24984869460724" y="40.0" /><rect fill="burlywood" height="20" width="0.23873068294915356" x="335.6530987513579" y="40.0" /><rect fill="palegoldenrod" height="20" width="0.7860695910616755" x="338.98083514680235" y="40.0" /><rect fill="deeppink" height="20" width="0.10513286640821207" x="440.74224979896167" y="40.0" /><rect fill="moccasin" height="20" width="0.9803028410624108" x="80.1182013881877" y="40.0" /><rect fill="palegoldenrod" height="20" width="3.1673370842081" x="169.25141960481855" y="40.0" /><rect fill="palegoldenrod" height="20" width="0.16671795912890275" x="339.92220195816947" y="40.0" /><rect fill="purple" height="20" width="0.02261802840899918" x="445.6284266968646" y="40.0" /><rect fill="orchid" height="20" width="0.030475993273341828" x="290.3597644453997" y="40.0" /><rect fill="mediumorchid" height="20" width="0.11469152824957973" x="337.6659418997533" y="40.0" /><rect fill="palegoldenrod" height="20" width="0.07307410770008005" x="70.03232969090904" y="40.0" /><rect fill="burlywood" height="20" width="0.09890732236480204" x="54.71775824179712" y="40.0" /><rect fill="palegoldenrod" height="20" width="0.4936304010260528" x="359.18368764080697" y="40.0" /><rect fill="palegoldenrod" height="20" width="0.26900805467778355" x="438.8168497856447" y="40.0" /><rect fill="pink" height="20" width="0.014431096611133398" x="330.8771754315639" y="40.0" /><rect fill="aquamarine" height="20" width="1.250856419635312" x="114.77112505775736" y="40.0" /><rect fill="cyan" height="20" width="0.013754541974293488" x="165.24609822328839" y="40.0" /><rect fill="dodgerblue" height="20" width="0.41441764620839194" x="75.57860667203596" y="40.0" /><rect fill="gold" height="20" width="0.036540157311662824" x="360.24063977737507" y="40.0" /><rect fill="burlywood" height="20" width="0.5498589189616041" x="113.42749375595156" y="40.0" /><rect fill="olive" height="20" width="0.26697218384404664" x="57.85992625213078" y="40.0" /><rect fill="antiquewhite" height="20" width="0.05722162565930944" x="65.27917336568258" y="40.0" /><rect fill="lightcyan" height="20" width="0.07821964709390272" x="153.84158429730343" y="40.0" /><rect fill="cadetblue" height="20" width="0.22305820168332957" x="257.3606134128478" y="40.0" /><rect fill="palegreen" height="20" width="0.058748528784633436" x="334.4869420067141" y="40.0" /><rect fill="slategrey" height="20" width="0.16996418000096014" x="161.36211598483382" y="40.0" /><rect fill="moccasin" height="20" width="0.5353098908082643" x="278.274760693237" y="40.0" /><rect fill="fuchsia" height="20" width="0.02873184783349103" x="52.02094318326746" y="40.0" /><rect fill="darkorange" height="20" width="0.012780055020357395" x="447.53842733353974" y="40.0" /><rect fill="mediumblue" height="20" width="0.032009103321911425" x="271.0651089647881" y="40.0" /><rect fill="lightcyan" height="20" width="0.0752092893062013" x="359.74651902941036" y="40.0" /><rect fill="honeydew" height="20" width="0.0071131340715169245" x="334.81391651784406" y="40.0" /><rect fill="darkgoldenrod" height="20" width="0.0244801053910777" x="73.44667749371328" y="40.0" /><rect fill="darkcyan" height="20" width="0.019632498314422264" x="332.49235341966636" y="40.0" /><rect fill="darkcyan" height="20" width="0.021593886068842494" x="333.7951245455621" y="40.0" /><rect fill="peru" height="20" width="0.08835555279966911" x="405.84141540692116" y="40.0" /><rect fill="khaki" height="20" width="0.9938773822617577" x="130.74573452086054" y="40.0" /><rect fill="mistyrose" height="20" width="0.3808878466843453" x="281.7955944717231" y="40.0" /><rect fill="thistle" height="20" width="0.04154914439345703" x="444.39293241233145" y="40.0" /><rect fill="antiquewhite" height="20" width="0.039221548165869535" x="319.7400247255892" y="40.0" /><rect fill="dodgerblue" height="20" width="0.041927766713165227" x="54.01348969255821" y="40.0" /><rect fill="blanchedalmond" height="20" width="0.24013965453229957" x="435.72176749526454" y="40.0" /><rect fill="salmon" height="20" width="0.008851072588157649" x="192.97887347973634" y="40.0" /><rect fill="deepskyblue" height="20" width="0.4656930393716152" x="354.84272688325694" y="40.0" /><rect fill="lightcyan" height="20" width="0.4681696017577508" x="63.04453822795165" y="40.0" /><rect fill="palevioletred" height="20" width="0.7043926877043987" x="329.10345400228385" y="40.0" /><rect fill="lightsteelblue" height="20" width="0.11158185968952239" x="445.006766089474" y="40.0" /><rect fill="red" height="20" width="0.1754883417144697" x="414.0438272714426" y="40.0" /><rect fill="red" height="20" width="0.39709412335179195" x="414.0449507245551" y="40.0" /><rect fill="peachpuff" height="20" width="0.8085634810051943" x="345.7992955359327" y="40.0" /><rect fill="tomato" height="20" width="0.1282350348325565" x="254.72774828480598" y="40.0" /><rect fill="lightslategray" height="20" width="0.435055666093092" x="421.5685424252594" y="40.0" /><rect fill="palegreen" height="20" width="1.2253521719040918" x="201.87844075942513" y="40.0" /><rect fill="deeppink" height="20" width="0.09224108676892229" x="331.55806250083117" y="40.0" /><rect fill="deeppink" height="20" width="0.2942702324013453" x="331.5659018449257" y="40.0" /><rect fill="blanchedalmond" height="20" width="0.6972919674793729" x="434.5404286162936" y="40.0" /><rect fill="blueviolet" height="20" width="1.5489252890800742" x="133.10692882414014" y="40.0" /><rect fill="tomato" height="20" width="0.1680400337861414" x="52.70299094718689" y="40.0" /><rect fill="maroon" height="20" width="0.13972404981194586" x="447.5524177385985" y="40.0" /><rect fill="peachpuff" height="20" width="0.040971900529022776" x="53.74772165182925" y="40.0" /><rect fill="honeydew" height="20" width="0.12816055175323982" x="440.04997923241064" y="40.0" /><rect fill="olive" height="20" width="0.0619513011938011" x="401.4937325514658" y="40.0" /><rect fill="palevioletred" height="20" width="0.12700606402438552" x="277.0088338638934" y="40.0" /><rect fill="olive" height="20" width="0.23481411436353028" x="277.01544423717974" y="40.0" /><rect fill="khaki" height="20" width="0.24325553001563094" x="286.6537657318156" y="40.0" /><rect fill="khaki" height="20" width="0.27978948040401974" x="64.25110204310656" y="40.0" /><rect fill="khaki" height="20" width="0.32179793711974014" x="64.77811327749802" y="40.0" /><rect fill="turquoise" height="20" width="0.025498040807946154" x="193.0424758225209" y="40.0" /><rect fill="palegreen" height="20" width="0.3584622328968976" x="249.3012400951664" y="40.0" /><rect fill="burlywood" height="20" width="0.6528255691473248" x="65.74452502427411" y="40.0" /><rect fill="hotpink" height="20" width="0.22022163774727233" x="361.0801571847457" y="40.0" /><rect fill="violet" height="20" width="0.4500826273384746" x="360.849694123597" y="40.0" /><rect fill="palegreen" height="20" width="0.2785108542096708" x="81.45812715679915" y="40.0" /><rect fill="aquamarine" height="20" width="0.024715968475476302" x="67.48057042928338" y="40.0" /><rect fill="cyan" height="20" width="0.030128405570053474" x="57.327651546803295" y="40.0" /><rect fill="midnightblue" height="20" width="0.26367630758576865" x="99.51478696279835" y="40.0" /><rect fill="salmon" height="20" width="0.012513157319574475" x="445.36033105990805" y="40.0" /><rect fill="lightsteelblue" height="20" width="0.06536510899428549" x="334.4211734477071" y="40.0" /><rect fill="deeppink" height="20" width="0.11393428361020597" x="328.95235266211137" y="40.0" /><rect fill="silver" height="20" width="0.5938101426619369" x="304.66272533245717" y="40.0" /><rect fill="purple" height="20" width="0.9605337904359885" x="322.57619141853445" y="40.0" /><rect fill="chartreuse" height="20" width="0.05678714103009952" x="265.40686529472873" y="40.0" /><rect fill="goldenrod" height="20" width="0.03360428260327808" x="339.76627163169013" y="40.0" /><rect fill="gainsboro" height="20" width="0.21926577156312987" x="331.62401726753643" y="40.0" /><rect fill="lightsalmon" height="20" width="0.1633475997913365" x="446.40657004690587" y="40.0" /><rect fill="powderblue" height="20" width="0.38814373999122154" x="247.0032198569655" y="40.0" /><rect fill="lightcyan" height="20" width="0.2155292037524532" x="52.25208900597629" y="40.0" /><rect fill="goldenrod" height="20" width="0.08269483877415951" x="86.8519621023265" y="40.0" /><rect fill="darkorange" height="20" width="0.5615217277926945" x="267.2572360195144" y="40.0" /><rect fill="purple" height="20" width="3.245742939000195" x="378.7956658668581" y="40.0" /><rect fill="darkslateblue" height="20" width="0.3132075553090772" x="285.75761014957334" y="40.0" /><rect fill="black" height="20" width="0.46093232922075345" x="247.81900198973787" y="40.0" /><rect fill="wheat" height="20" width="0.11617498291195716" x="326.0584119273355" y="40.0" /><rect fill="mediumblue" height="20" width="0.04593123222463191" x="416.3279812430503" y="40.0" /><rect fill="lightslategray" height="20" width="0.02719253086166873" x="334.3551441979225" y="40.0" /><rect fill="violet" height="20" width="0.21621817223581274" x="360.849694123597" y="40.0" /><rect fill="mediumturquoise" height="20" width="0.32662692342660193" x="69.28846717810784" y="40.0" /><rect fill="deepskyblue" height="20" width="0.10294802941592707" x="446.86961273003965" y="40.0" /><rect fill="mediumpurple" height="20" width="0.6801236177045666" x="269.1203185231644" y="40.0" /><rect fill="red" height="20" width="0.3846988975744239" x="412.4168002668108" y="40.0" /><rect fill="grey" height="20" width="0.16156000588851782" x="67.63202556408247" y="40.0" /><rect fill="darkturquoise" height="20" width="0.2622176806164589" x="285.261658359243" y="40.0" /><rect fill="darkorange" height="20" width="0.07125547918090547" x="205.61305959622382" y="40.0" /><rect fill="darkcyan" height="20" width="0.010365561866933604" x="333.2189668926902" y="40.0" /><rect fill="darkcyan" height="20" width="0.12641019939007947" x="333.56113595199395" y="40.0" /><rect fill="orange" height="20" width="0.13473368350003057" x="333.33712809104975" y="40.0" /><rect fill="darkcyan" height="20" width="0.0064552002045275" x="330.0776368169985" y="40.0" /><rect fill="darkcyan" height="20" width="0.04221328518372047" x="333.66890676079345" y="40.0" /><rect fill="honeydew" height="20" width="0.07340307463357476" x="332.22697641510365" y="40.0" /><rect fill="darkcyan" height="20" width="0.2730301409590652" x="333.95397833290326" y="40.0" /><rect fill="darkcyan" height="20" width="0.035503601124958095" x="329.9909074780965" y="40.0" /><rect fill="darkcyan" height="20" width="0.03289048642676562" x="332.62726089701806" y="40.0" /><rect fill="darkcyan" height="20" width="0.17486764938706756" x="332.7325116949685" y="40.0" /><rect fill="orange" height="20" width="0.1448013130497543" x="333.08497803998307" y="40.0" /><rect fill="indianred" height="20" width="0.08481760653376114" x="327.54160589894815" y="40.0" /><rect fill="cyan" height="20" width="0.21963198003632556" x="248.42293562425905" y="40.0" /><rect fill="peru" height="20" width="0.5370416224016026" x="182.22797340215448" y="40.0" /><rect fill="paleturquoise" height="20" width="0.12913503870720433" x="442.2491790451726" y="40.0" /><rect fill="deeppink" height="20" width="0.14186543834136955" x="328.60194701562364" y="40.0" /><rect fill="blue" height="20" width="0.10384182636727246" x="407.5426523862121" y="40.0" /><rect fill="lightgreen" height="20" width="0.5435899264552404" x="445.65204403992067" y="40.0" /><rect fill="lightsalmon" height="20" width="0.020811813736379747" x="51.843257590714146" y="40.0" /><rect fill="darksalmon" height="20" width="0.9474558030984781" x="373.08067850423146" y="40.0" /><rect fill="purple" height="20" width="0.1779959387170038" x="445.4273472104931" y="40.0" /><rect fill="fuchsia" height="20" width="0.8641526858435782" x="305.5914672618858" y="40.0" /><rect fill="lightblue" height="20" width="0.916607394428695" x="343.0239691049153" y="40.0" /><rect fill="purple" height="20" width="0.17821938795486858" x="163.51396938686474" y="40.0" /><rect fill="purple" height="20" width="0.2659170068874914" x="382.4866624468899" y="40.0" /><rect fill="purple" height="20" width="0.08645623427793225" x="338.61963566074184" y="40.0" /><rect fill="palevioletred" height="20" width="0.14598062847176152" x="335.19976369622407" y="40.0" /><rect fill="darksalmon" height="20" width="0.14043784598845832" x="209.3578826148843" y="40.0" /><rect fill="purple" height="20" width="0.3762140334594051" x="259.3698068903583" y="40.0" /><rect fill="darksalmon" height="20" width="0.26618390458828856" x="65.40444769811363" y="40.0" /><rect fill="darksalmon" height="20" width="0.08170173105037293" x="446.9743421464351" y="40.0" /><rect fill="purple" height="20" width="0.8424781097721166" x="416.97428954276035" y="40.0" /><rect fill="lightsalmon" height="20" width="0.2512562541152761" x="355.6161529716103" y="40.0" /><rect fill="cornflowerblue" height="20" width="0.0250697631020671" x="334.7812556875784" y="40.0" /><rect fill="cornflowerblue" height="20" width="0.13347988499879193" x="334.6347102290887" y="40.0" /></g></svg>